# This file uses centimeters as units for non-parametric coordinates.

mtllib ceiling.mtl
g default
v -7.931345 3.966325 2.374947
v 7.376465 3.966325 2.374947
v -7.931345 3.989862 2.374947
v 7.376465 3.989862 2.374947
v -7.931345 3.989862 -11.686958
v 7.376465 3.989862 -11.686958
v -7.931345 3.966325 -11.686958
v 7.376465 3.966325 -11.686958
v -5.842936 3.966325 3.054909
v 7.839285 3.966325 3.054909
v 7.839285 3.989862 3.054909
v -5.842936 3.989862 3.054909
v -5.842936 3.966325 5.663130
v 7.839285 3.966325 5.663130
v 7.839285 3.989862 5.663130
v -5.842936 3.989862 5.663130
v -5.842936 3.966325 10.911750
v 7.839285 3.966325 10.911750
v 7.839285 3.989862 10.911750
v -5.842936 3.989862 10.911750
v 5.080909 3.966325 10.952145
v 7.745258 3.966325 10.952145
v 7.745258 3.989862 10.952145
v 5.080909 3.989862 10.952145
v 5.067852 3.966325 13.318206
v 7.732201 3.966325 13.318206
v 7.819938 3.989862 13.318206
v 5.155589 3.989862 13.318206
vt 0.375000 0.000000
vt 0.625000 0.000000
vt 0.375000 0.250000
vt 0.625000 0.250000
vt 0.375000 0.500000
vt 0.625000 0.500000
vt 0.375000 0.750000
vt 0.625000 0.750000
vt 0.875000 0.000000
vt 0.875000 0.250000
vt 0.125000 0.000000
vt 0.125000 0.250000
vt 0.375000 0.000000
vt 0.625000 0.000000
vt 0.625000 0.250000
vt 0.375000 0.250000
vt 0.375000 0.000000
vt 0.625000 0.000000
vt 0.625000 0.250000
vt 0.375000 0.250000
vt 0.375000 0.000000
vt 0.625000 0.000000
vt 0.625000 0.250000
vt 0.375000 0.250000
vt 0.375000 0.000000
vt 0.625000 0.000000
vt 0.625000 0.250000
vt 0.375000 0.250000
vt 0.375000 0.000000
vt 0.625000 0.000000
vt 0.625000 0.250000
vt 0.375000 0.250000
vt -3.293694 1.340071
vt 2.463859 1.340071
vt 2.463859 7.097620
vt -3.293694 7.097620
vt 2.637937 7.376023
vt -2.508206 7.376023
vt 2.637937 8.443951
vt -2.508206 8.443951
vt 2.637937 10.592959
vt -2.508206 10.592959
vt 2.602565 10.609496
vt 1.600454 10.609496
vt 2.597657 11.578269
vt 1.595545 11.578269
vn 0.000000 0.000000 1.000000
vn 0.000000 0.000000 1.000000
vn 0.000000 0.000000 1.000000
vn 0.000000 0.000000 1.000000
vn 0.000000 1.000000 0.000000
vn 0.000000 1.000000 0.000000
vn 0.000000 1.000000 0.000000
vn 0.000000 1.000000 0.000000
vn 0.000000 0.000000 -1.000000
vn 0.000000 0.000000 -1.000000
vn 0.000000 0.000000 -1.000000
vn 0.000000 0.000000 -1.000000
vn 0.000000 -1.000000 0.000000
vn 0.000000 -1.000000 0.000000
vn 0.000000 -1.000000 0.000000
vn 0.000000 -1.000000 0.000000
vn 1.000000 0.000000 0.000000
vn 1.000000 0.000000 0.000000
vn 1.000000 0.000000 0.000000
vn 1.000000 0.000000 0.000000
vn -1.000000 0.000000 0.000000
vn -1.000000 0.000000 0.000000
vn -1.000000 0.000000 0.000000
vn -1.000000 0.000000 0.000000
vn 0.000000 -1.000000 -0.000000
vn 0.000000 -1.000000 -0.000000
vn 0.000000 -1.000000 -0.000000
vn 0.000000 -1.000000 -0.000000
vn 0.826674 0.000000 -0.562681
vn 0.826674 0.000000 -0.562681
vn 0.826674 0.000000 -0.562681
vn 0.826674 0.000000 -0.562681
vn 0.000000 1.000000 0.000000
vn 0.000000 1.000000 0.000000
vn 0.000000 1.000000 0.000000
vn 0.000000 1.000000 0.000000
vn -0.309592 0.000000 0.950869
vn -0.309592 0.000000 0.950869
vn -0.309592 0.000000 0.950869
vn -0.309592 0.000000 0.950869
vn 0.000000 -1.000000 0.000000
vn 0.000000 -1.000000 0.000000
vn 0.000000 -1.000000 0.000000
vn 0.000000 -1.000000 0.000000
vn 1.000000 0.000000 0.000000
vn 1.000000 0.000000 0.000000
vn 1.000000 0.000000 0.000000
vn 1.000000 0.000000 0.000000
vn 0.000000 1.000000 0.000000
vn 0.000000 1.000000 0.000000
vn 0.000000 1.000000 0.000000
vn 0.000000 1.000000 0.000000
vn -1.000000 0.000000 0.000000
vn -1.000000 0.000000 0.000000
vn -1.000000 0.000000 0.000000
vn -1.000000 0.000000 0.000000
vn 0.000000 -1.000000 0.000000
vn 0.000000 -1.000000 0.000000
vn 0.000000 -1.000000 0.000000
vn 0.000000 -1.000000 0.000000
vn 1.000000 0.000000 0.000000
vn 1.000000 0.000000 0.000000
vn 1.000000 0.000000 0.000000
vn 1.000000 0.000000 0.000000
vn 0.000000 1.000000 0.000000
vn 0.000000 1.000000 0.000000
vn 0.000000 1.000000 0.000000
vn 0.000000 1.000000 0.000000
vn -1.000000 0.000000 0.000000
vn -1.000000 0.000000 0.000000
vn -1.000000 0.000000 0.000000
vn -1.000000 0.000000 0.000000
vn 0.000000 -1.000000 0.000000
vn 0.000000 -1.000000 0.000000
vn 0.000000 -1.000000 0.000000
vn 0.000000 -1.000000 0.000000
vn 0.394731 0.000000 0.918797
vn 0.394731 0.000000 0.918797
vn 0.394731 0.000000 0.918797
vn 0.394731 0.000000 0.918797
vn 0.000000 1.000000 0.000000
vn 0.000000 1.000000 0.000000
vn 0.000000 1.000000 0.000000
vn 0.000000 1.000000 0.000000
vn -0.003698 0.000000 0.999993
vn -0.003698 0.000000 0.999993
vn -0.003698 0.000000 0.999993
vn -0.003698 0.000000 0.999993
vn 0.000000 -1.000000 0.000000
vn 0.000000 -1.000000 0.000000
vn 0.000000 -1.000000 0.000000
vn 0.000000 -1.000000 0.000000
vn 0.472759 -0.881170 -0.006156
vn 0.472759 -0.881170 -0.006156
vn 0.472759 -0.881170 -0.006156
vn 0.472759 -0.881170 -0.006156
vn 0.000000 1.000000 0.000000
vn 0.000000 1.000000 0.000000
vn 0.000000 1.000000 0.000000
vn 0.000000 1.000000 0.000000
vn -0.472767 0.881166 0.006156
vn -0.472767 0.881166 0.006156
vn -0.472767 0.881166 0.006156
vn -0.472767 0.881166 0.006156
s off
g ceiling
usemtl initialShadingGroup
f 25/29/1 26/30/2 27/31/3 28/32/4
f 3/3/5 4/4/6 6/6/7 5/5/8
f 5/5/9 6/6/10 8/8/11 7/7/12
usemtl lambert9SG
f 7/33/13 8/34/14 2/35/15 1/36/16
usemtl initialShadingGroup
f 2/2/17 8/9/18 6/10/19 4/4/20
f 7/11/21 1/1/22 3/3/23 5/12/24
usemtl lambert9SG
f 1/36/25 2/35/26 10/37/27 9/38/28
usemtl initialShadingGroup
f 2/2/29 4/4/30 11/15/31 10/14/32
f 4/4/33 3/3/34 12/16/35 11/15/36
f 3/3/37 1/1/38 9/13/39 12/16/40
usemtl lambert9SG
f 9/38/41 10/37/42 14/39/43 13/40/44
usemtl initialShadingGroup
f 10/14/45 11/15/46 15/19/47 14/18/48
f 11/15/49 12/16/50 16/20/51 15/19/52
f 12/16/53 9/13/54 13/17/55 16/20/56
usemtl lambert9SG
f 13/40/57 14/39/58 18/41/59 17/42/60
usemtl initialShadingGroup
f 14/18/61 15/19/62 19/23/63 18/22/64
f 15/19/65 16/20/66 20/24/67 19/23/68
f 16/20/69 13/17/70 17/21/71 20/24/72
usemtl lambert9SG
f 17/42/73 18/41/74 22/43/75 21/44/76
usemtl initialShadingGroup
f 18/22/77 19/23/78 23/27/79 22/26/80
f 19/23/81 20/24/82 24/28/83 23/27/84
f 20/24/85 17/21/86 21/25/87 24/28/88
usemtl lambert9SG
f 21/44/89 22/43/90 26/45/91 25/46/92
usemtl initialShadingGroup
f 22/26/93 23/27/94 27/31/95 26/30/96
f 23/27/97 24/28/98 28/32/99 27/31/100
f 24/28/101 21/25/102 25/29/103 28/32/104
