# This file uses centimeters as units for non-parametric coordinates.

mtllib desk.mtl
g default
v -0.530208 1.028101 1.198424
v -0.530208 1.085772 1.198424
v -0.530208 0.994480 -1.426838
v -0.530208 1.085772 -1.426838
v -0.504076 1.028101 1.198424
v -0.504076 1.085772 1.198424
v -0.504076 0.994480 -1.426838
v -0.504076 1.085772 -1.426838
v -0.530208 1.028101 -0.845703
v -0.530208 1.085772 -0.845703
v -0.504076 1.028101 -0.845703
v -0.504076 1.085772 -0.845703
v 0.340318 1.001933 -0.845701
v 0.340318 1.001933 1.198424
v -0.530208 1.001933 -0.845701
v -0.530208 1.001933 1.198424
v 0.340318 1.028101 -0.845701
v 0.340318 1.028101 1.198424
v -0.530208 1.028101 -0.845701
v -0.530208 1.028101 1.198424
v 0.340318 1.001933 1.172256
v 0.340318 0.000000 1.172256
v -0.530208 1.001933 1.172256
v -0.530208 0.000000 1.172256
v 0.340318 1.001933 1.198424
v 0.340318 0.000000 1.198424
v -0.530208 1.001933 1.198424
v -0.530208 0.000000 1.198424
v 0.340318 1.059604 -1.426838
v 0.340318 1.059604 -0.845701
v -0.504076 1.059604 -1.426838
v -0.504076 1.059604 -0.845701
v 0.340318 1.085772 -1.426838
v 0.340318 1.085772 -0.845701
v -0.504076 1.085772 -1.426838
v -0.504076 1.085772 -0.845701
v 0.340318 1.059604 -0.871871
v 0.340318 0.000000 -0.871871
v -0.504076 1.059604 -0.871871
v -0.504076 0.000000 -0.871871
v 0.340318 1.059604 -0.845703
v 0.340318 0.000000 -0.845703
v -0.504076 1.059604 -0.845703
v -0.504076 0.000000 -0.845703
v -0.504076 0.000000 -1.426838
v -0.530208 0.000000 -1.426838
v -0.504076 0.000000 -0.845703
v -0.530208 0.000000 -0.845703
v -0.530208 0.508479 1.172256
v -0.530208 1.001933 1.172256
v -0.504076 0.508479 1.172256
v -0.504076 1.001933 1.172256
v -0.530208 0.508479 -0.845703
v -0.530208 1.001933 -0.845703
v -0.504076 0.508479 -0.845703
v -0.504076 1.001933 -0.845703
v 0.340318 0.000000 -1.400669
v 0.340318 0.000000 -0.871871
v -0.504076 0.000000 -1.400669
v -0.504076 0.000000 -0.871871
v 0.340318 0.101579 -1.400669
v 0.340318 0.101579 -0.871871
v -0.504076 0.101579 -1.400669
v -0.504076 0.101579 -0.871871
v -0.504076 0.000000 -1.400669
v -0.504076 1.059604 -1.400669
v 0.340318 0.000000 -1.400669
v 0.340318 1.059604 -1.400669
v 0.323159 0.814450 -1.400669
v 0.323159 0.814450 -0.871871
v -0.504076 0.814450 -1.400669
v -0.504076 0.814450 -0.871871
v 0.323159 0.840619 -1.400669
v 0.323159 0.840619 -0.871871
v -0.504076 0.840619 -1.400669
v -0.504076 0.840619 -0.871871
v -0.504076 0.000000 -1.426838
v -0.504076 1.059604 -1.426838
v 0.340318 0.000000 -1.426838
v 0.340318 1.059604 -1.426838
v 0.323159 0.451461 -1.400669
v 0.323159 0.451461 -0.871871
v -0.504076 0.451461 -1.400669
v -0.504076 0.451461 -0.871871
v 0.323159 0.477630 -1.400669
v 0.323159 0.477630 -0.871871
v -0.504076 0.477630 -1.400669
v -0.504076 0.477630 -0.871871
vn -1.000000 0.000000 0.000000
vn -1.000000 0.000000 0.000000
vn -1.000000 0.000000 0.000000
vn -1.000000 0.000000 0.000000
vn 0.000000 -1.000000 0.000000
vn 0.000000 -1.000000 0.000000
vn 0.000000 -1.000000 0.000000
vn 0.000000 -1.000000 0.000000
vn 0.000000 1.000000 0.000000
vn 0.000000 1.000000 0.000000
vn 0.000000 1.000000 0.000000
vn 0.000000 1.000000 0.000000
vn 1.000000 0.000000 0.000000
vn 1.000000 0.000000 0.000000
vn 1.000000 0.000000 0.000000
vn 1.000000 0.000000 0.000000
vn 1.000000 0.000000 0.000000
vn 1.000000 0.000000 0.000000
vn 1.000000 0.000000 0.000000
vn 1.000000 0.000000 0.000000
vn 0.000000 1.000000 0.000000
vn 0.000000 1.000000 0.000000
vn 0.000000 1.000000 0.000000
vn 0.000000 1.000000 0.000000
vn -1.000000 0.000000 0.000000
vn -1.000000 0.000000 0.000000
vn -1.000000 0.000000 0.000000
vn -1.000000 0.000000 0.000000
vn -1.000000 0.000000 0.000000
vn -1.000000 0.000000 0.000000
vn -1.000000 0.000000 0.000000
vn -1.000000 0.000000 0.000000
vn 0.000000 -1.000000 0.000000
vn 0.000000 -1.000000 0.000000
vn 0.000000 -1.000000 0.000000
vn 0.000000 -1.000000 0.000000
vn 0.000000 1.000000 0.000000
vn 0.000000 1.000000 0.000000
vn 0.000000 1.000000 0.000000
vn 0.000000 1.000000 0.000000
vn 1.000000 0.000000 0.000000
vn 1.000000 0.000000 0.000000
vn 1.000000 0.000000 0.000000
vn 1.000000 0.000000 0.000000
vn 0.000000 0.000000 1.000000
vn 0.000000 0.000000 1.000000
vn 0.000000 0.000000 1.000000
vn 0.000000 0.000000 1.000000
vn 0.000000 -1.000000 0.000000
vn 0.000000 -1.000000 0.000000
vn 0.000000 -1.000000 0.000000
vn 0.000000 -1.000000 0.000000
vn 0.000000 0.000000 -1.000000
vn 0.000000 0.000000 -1.000000
vn 0.000000 0.000000 -1.000000
vn 0.000000 0.000000 -1.000000
vn 0.000000 0.000000 1.000000
vn 0.000000 0.000000 1.000000
vn 0.000000 0.000000 1.000000
vn 0.000000 0.000000 1.000000
vn 0.000000 0.000000 -1.000000
vn 0.000000 0.000000 -1.000000
vn 0.000000 0.000000 -1.000000
vn 0.000000 0.000000 -1.000000
vn 0.000000 0.000000 1.000000
vn 0.000000 0.000000 1.000000
vn 0.000000 0.000000 1.000000
vn 0.000000 0.000000 1.000000
vn 1.000000 0.000000 0.000000
vn 1.000000 0.000000 0.000000
vn 1.000000 0.000000 0.000000
vn 1.000000 0.000000 0.000000
vn 0.000000 -1.000000 0.000000
vn 0.000000 -1.000000 0.000000
vn 0.000000 -1.000000 0.000000
vn 0.000000 -1.000000 0.000000
vn 0.000000 1.000000 0.000000
vn 0.000000 1.000000 0.000000
vn 0.000000 1.000000 0.000000
vn 0.000000 1.000000 0.000000
vn 1.000000 0.000000 0.000000
vn 1.000000 0.000000 0.000000
vn 1.000000 0.000000 0.000000
vn 1.000000 0.000000 0.000000
vn 0.000000 0.000000 1.000000
vn 0.000000 0.000000 1.000000
vn 0.000000 0.000000 1.000000
vn 0.000000 0.000000 1.000000
vn 0.000000 0.000000 -1.000000
vn 0.000000 0.000000 -1.000000
vn 0.000000 0.000000 -1.000000
vn 0.000000 0.000000 -1.000000
vn -1.000000 0.000000 0.000000
vn -1.000000 0.000000 0.000000
vn -1.000000 0.000000 0.000000
vn -1.000000 0.000000 0.000000
vn -1.000000 0.000000 0.000000
vn -1.000000 0.000000 0.000000
vn -1.000000 0.000000 0.000000
vn -1.000000 0.000000 0.000000
vn 0.000000 0.000000 -1.000000
vn 0.000000 0.000000 -1.000000
vn 0.000000 0.000000 -1.000000
vn 0.000000 0.000000 -1.000000
vn 0.000000 0.000000 1.000000
vn 0.000000 0.000000 1.000000
vn 0.000000 0.000000 1.000000
vn 0.000000 0.000000 1.000000
vn 1.000000 0.000000 0.000000
vn 1.000000 0.000000 0.000000
vn 1.000000 0.000000 0.000000
vn 1.000000 0.000000 0.000000
vn 0.000000 -1.000000 0.000000
vn 0.000000 -1.000000 0.000000
vn 0.000000 -1.000000 0.000000
vn 0.000000 -1.000000 0.000000
vn 1.000000 0.000000 0.000000
vn 1.000000 0.000000 0.000000
vn 1.000000 0.000000 0.000000
vn 1.000000 0.000000 0.000000
vn 0.000000 0.000000 -1.000000
vn 0.000000 0.000000 -1.000000
vn 0.000000 0.000000 -1.000000
vn 0.000000 0.000000 -1.000000
vn 0.000000 0.000000 1.000000
vn 0.000000 0.000000 1.000000
vn 0.000000 0.000000 1.000000
vn 0.000000 0.000000 1.000000
vn 0.000000 -1.000000 0.000000
vn 0.000000 -1.000000 0.000000
vn 0.000000 -1.000000 0.000000
vn 0.000000 -1.000000 0.000000
vn 1.000000 0.000000 0.000000
vn 1.000000 0.000000 0.000000
vn 1.000000 0.000000 0.000000
vn 1.000000 0.000000 0.000000
vn -1.000000 0.000000 0.000000
vn -1.000000 0.000000 0.000000
vn -1.000000 0.000000 0.000000
vn -1.000000 0.000000 0.000000
vn 0.000000 -1.000000 0.000000
vn 0.000000 -1.000000 0.000000
vn 0.000000 -1.000000 0.000000
vn 0.000000 -1.000000 0.000000
vn 0.000000 1.000000 0.000000
vn 0.000000 1.000000 0.000000
vn 0.000000 1.000000 0.000000
vn 0.000000 1.000000 0.000000
vn 1.000000 0.000000 0.000000
vn 1.000000 0.000000 0.000000
vn 1.000000 0.000000 0.000000
vn 1.000000 0.000000 0.000000
vn 0.000000 -1.000000 0.000000
vn 0.000000 -1.000000 0.000000
vn 0.000000 -1.000000 0.000000
vn 0.000000 -1.000000 0.000000
vn 0.000000 -1.000000 0.000000
vn 0.000000 -1.000000 0.000000
vn 0.000000 -1.000000 0.000000
vn 0.000000 -1.000000 0.000000
vn 0.000000 1.000000 0.000000
vn 0.000000 1.000000 0.000000
vn 0.000000 1.000000 0.000000
vn 0.000000 1.000000 0.000000
vn 1.000000 0.000000 0.000000
vn 1.000000 0.000000 0.000000
vn 1.000000 0.000000 0.000000
vn 1.000000 0.000000 0.000000
vn 0.000000 0.000000 1.000000
vn 0.000000 0.000000 1.000000
vn 0.000000 0.000000 1.000000
vn 0.000000 0.000000 1.000000
vn 0.000000 0.000000 -1.000000
vn 0.000000 0.000000 -1.000000
vn 0.000000 0.000000 -1.000000
vn 0.000000 0.000000 -1.000000
vn 1.000000 0.000000 0.000000
vn 1.000000 0.000000 0.000000
vn 1.000000 0.000000 0.000000
vn 1.000000 0.000000 0.000000
vn 0.000000 0.000000 1.000000
vn 0.000000 0.000000 1.000000
vn 0.000000 0.000000 1.000000
vn 0.000000 0.000000 1.000000
vn 0.000000 0.000000 -1.000000
vn 0.000000 0.000000 -1.000000
vn 0.000000 0.000000 -1.000000
vn 0.000000 0.000000 -1.000000
vn 0.000000 -1.000000 0.000000
vn 0.000000 -1.000000 0.000000
vn 0.000000 -1.000000 0.000000
vn 0.000000 -1.000000 0.000000
vn 0.000000 1.000000 0.000000
vn 0.000000 1.000000 0.000000
vn 0.000000 1.000000 0.000000
vn 0.000000 1.000000 0.000000
vn 1.000000 0.000000 0.000000
vn 1.000000 0.000000 0.000000
vn 1.000000 0.000000 0.000000
vn 1.000000 0.000000 0.000000
vn 0.000000 0.000000 1.000000
vn 0.000000 0.000000 1.000000
vn 0.000000 0.000000 1.000000
vn 0.000000 0.000000 1.000000
vn 0.000000 0.000000 -1.000000
vn 0.000000 0.000000 -1.000000
vn 0.000000 0.000000 -1.000000
vn 0.000000 0.000000 -1.000000
s off
g desk einrichtung
usemtl lambert8SG
f 9//1 10//2 4//3 3//4
f 46//5 45//6 47//7 48//8
f 12//9 10//10 2//11 6//12
f 11//13 7//14 8//15 12//16
f 5//17 11//18 12//19 6//20
f 8//21 4//22 10//23 12//24
f 9//25 3//26 46//27 48//28
f 1//29 2//30 10//31 9//32
f 13//33 14//34 16//35 15//36
f 19//37 20//38 18//39 17//40
f 17//41 18//42 14//43 13//44
f 14//45 18//46 20//47 16//48
f 29//49 30//50 32//51 31//52
f 4//53 8//54 7//55 3//56
f 2//57 1//58 5//59 6//60
f 21//61 22//62 24//63 23//64
f 27//65 28//66 26//67 25//68
f 25//69 26//70 22//71 21//72
f 22//73 26//74 28//75 24//76
f 35//77 36//78 34//79 33//80
f 33//81 34//82 30//83 29//84
f 30//85 34//86 36//87 32//88
f 31//89 35//90 33//91 29//92
f 15//93 16//94 20//95 19//96
f 23//97 24//98 28//99 27//100
f 37//101 38//102 40//103 39//104
f 43//105 44//106 42//107 41//108
f 41//109 42//110 38//111 37//112
f 38//113 42//114 44//115 40//116
f 7//117 11//118 47//119 45//120
f 3//121 7//122 45//123 46//124
f 11//125 9//126 48//127 47//128
f 53//129 55//130 51//131 49//132
f 51//133 55//134 56//135 52//136
f 49//137 50//138 54//139 53//140
f 57//141 58//142 60//143 59//144
f 63//145 64//146 62//147 61//148
f 61//149 62//150 58//151 57//152
f 79//153 67//154 65//155 77//156
f 69//157 70//158 72//159 71//160
f 75//161 76//162 74//163 73//164
f 73//165 74//166 70//167 69//168
f 70//169 74//170 76//171 72//172
f 71//173 75//174 73//175 69//176
f 68//177 67//178 79//179 80//180
f 66//181 65//182 67//183 68//184
f 80//185 79//186 77//187 78//188
f 81//189 82//190 84//191 83//192
f 87//193 88//194 86//195 85//196
f 85//197 86//198 82//199 81//200
f 82//201 86//202 88//203 84//204
f 83//205 87//206 85//207 81//208
